<svg xmlns="http://www.w3.org/2000/svg" xmlns:xlink="http://www.w3.org/1999/xlink" id="logoTool" pointer-events="auto" width="120%" height="120%" viewBox="-114 -90 1368 1080" style="transform: translate3d(-8px, -10px, 0px) scale(1);"><g><circle r="2" fill="#333" id="___GB" cx="126" cy="427" style="visibility: hidden;"></circle><circle r="2" fill="#333" id="___DE" cx="972" cy="532" style="visibility: hidden;"></circle><circle r="2" fill="#333" id="___BE" cx="443" cy="803" style="visibility: hidden;"></circle><circle r="2" fill="#333" id="___NO" cx="980" cy="259" style="visibility: hidden;"></circle><circle r="2" fill="#333" id="___DK" cx="1054" cy="124" style="visibility: hidden;"></circle><circle r="2" fill="#333" id="___Zuid-Holland" cx="336" cy="539" style="visibility: hidden;"></circle><circle r="2" fill="#333" id="___Noord-Holland" cx="407" cy="360" style="visibility: hidden;"></circle><circle r="2" fill="#333" id="___Groningen" cx="788" cy="141" style="visibility: hidden;"></circle><circle r="2" fill="#333" id="___Utrecht" cx="531" cy="463" style="visibility: hidden;"></circle><circle r="2" fill="#333" id="___Gelderland" cx="665" cy="500" style="visibility: hidden;"></circle><circle r="2" fill="#333" id="___Zeeland" cx="258" cy="672" style="visibility: hidden;"></circle><circle r="2" fill="#333" id="___Noord-Brabant" cx="507" cy="589" style="visibility: hidden;"></circle><circle r="2" fill="#333" id="___Overijssel" cx="814" cy="417" style="visibility: hidden;"></circle><circle r="2" fill="#333" id="___Fryslan" cx="599" cy="173" style="visibility: hidden;"></circle><circle r="2" fill="#333" id="___Drenthe" cx="721" cy="285" style="visibility: hidden;"></circle><circle r="2" fill="#333" id="___Flevoland" cx="578" cy="325" style="visibility: hidden;"></circle><circle r="2" fill="#333" id="___Limburg" cx="607" cy="808" style="visibility: hidden;"></circle><circle r="2" fill="#333" id="___Wind-Op-Zee" cx="131" cy="111" style="visibility: hidden;"></circle></g><g transform="translate(20,10)"><path stroke="#FFF" stroke-width="1" d="M316 529 L387 350" stroke-dasharray="0" fill="none" id="____ElektriciteitstransportNoord-HollandtoZuid-Holland_TRANS_SOURCE_Noord-Holland_TARGET_Zuid-Holland_electricity" stroke-dashoffset="0" data-gridScale="100" style="opacity: 1; visibility: visible; stroke-width: 8;"></path><path stroke="#FFF" stroke-width="1" d="M387 350 L316 529" stroke-dasharray="0" fill="none" id="____ElektriciteitstransportZuid-HollandtoNoord-Holland_TRANS_SOURCE_Zuid-Holland_TARGET_Noord-Holland_electricity" stroke-dashoffset="0" data-gridScale="100" style="opacity: 1; visibility: hidden;"></path><path stroke="#FFF" stroke-width="1" d="M511 453 L316 529" stroke-dasharray="0" fill="none" id="____ElektriciteitstransportZuid-HollandtoUtrecht_TRANS_SOURCE_Zuid-Holland_TARGET_Utrecht_electricity" stroke-dashoffset="0" data-gridScale="100" style="opacity: 1; visibility: visible; stroke-width: 8;"></path><path stroke="#FFF" stroke-width="1" d="M316 529 L511 453" stroke-dasharray="0" fill="none" id="____ElektriciteitstransportUtrechttoZuid-Holland_TRANS_SOURCE_Utrecht_TARGET_Zuid-Holland_electricity" stroke-dashoffset="0" data-gridScale="100" style="opacity: 1; visibility: hidden;"></path><path stroke="#FFF" stroke-width="1" d="M387 350 L511 453" stroke-dasharray="0" fill="none" id="____ElektriciteitstransportUtrechttoNoord-Holland_TRANS_SOURCE_Utrecht_TARGET_Noord-Holland_electricity" stroke-dashoffset="0" data-gridScale="100" style="opacity: 1; visibility: visible; stroke-width: 8;"></path><path stroke="#FFF" stroke-width="4" d="M511 453 L387 350" stroke-dasharray="0" fill="none" stroke-dashoffset="0" data-gridScale="100" style="opacity: 1; visibility: hidden;"></path><path stroke="#FFF" stroke-width="1" d="M558 315 L387 350" stroke-dasharray="0" fill="none" id="____ElektriciteitstransportNoord-HollandtoFlevoland_TRANS_SOURCE_Noord-Holland_TARGET_Flevoland_electricity" stroke-dashoffset="0" data-gridScale="100" style="opacity: 1; visibility: visible; stroke-width: 8;"></path><path stroke="#FFF" stroke-width="4" d="M387 350 L558 315" stroke-dasharray="0" fill="none" id="____ElektriciteitstransportFlevolandtoNoord-Holland_TRANS_SOURCE_Flevoland_TARGET_Noord-Holland_electricity" stroke-dashoffset="0" data-gridScale="100" style="opacity: 1; visibility: hidden;"></path><path stroke="#FFF" stroke-width="1" d="M558 315 L579 163" stroke-dasharray="0" fill="none" id="____ElektriciteitstransportFryslantoFlevoland_TRANS_SOURCE_Fryslan_TARGET_Flevoland_electricity" stroke-dashoffset="0" data-gridScale="100" style="opacity: 1; visibility: visible; stroke-width: 8;"></path><path stroke="#FFF" stroke-width="4" d="M579 163 L558 315" stroke-dasharray="0" fill="none" id="____ElektriciteitstransportFlevolandtoFryslan_TRANS_SOURCE_Flevoland_TARGET_Fryslan_electricity" stroke-dashoffset="0" data-gridScale="100" style="opacity: 1; visibility: hidden;"></path><path stroke="#FFF" stroke-width="1" d="M794 407 L558 315" stroke-dasharray="0" fill="none" id="____ElektriciteitstransportFlevolandtoOverijssel_TRANS_SOURCE_Flevoland_TARGET_Overijssel_electricity" stroke-dashoffset="0" data-gridScale="100" style="opacity: 1; visibility: visible; stroke-width: 8;"></path><path stroke="#FFF" stroke-width="4" d="M558 315 L794 407" stroke-dasharray="0" fill="none" id="____ElektriciteitstransportOverijsseltoFlevoland_TRANS_SOURCE_Overijssel_TARGET_Flevoland_electricity" stroke-dashoffset="0" data-gridScale="100" style="opacity: 1; visibility: hidden;"></path><path stroke="#FFF" stroke-width="1" d="M701 275 L768 131" stroke-dasharray="0" fill="none" id="____ElektriciteitstransportGroningentoDrenthe_TRANS_SOURCE_Groningen_TARGET_Drenthe_electricity" stroke-dashoffset="0" data-gridScale="100" style="opacity: 1; visibility: visible; stroke-width: 8;"></path><path stroke="#FFF" stroke-width="4" d="M768 131 L701 275" stroke-dasharray="0" fill="none" id="____ElektriciteitstransportDrenthetoGroningen_TRANS_SOURCE_Drenthe_TARGET_Groningen_electricity" stroke-dashoffset="0" data-gridScale="100" style="opacity: 1; visibility: hidden;"></path><path stroke="#FFF" stroke-width="1" d="M794 407 L701 275" stroke-dasharray="0" fill="none" id="____ElektriciteitstransportDrenthetoOverijssel_TRANS_SOURCE_Drenthe_TARGET_Overijssel_electricity" stroke-dashoffset="0" data-gridScale="100" style="opacity: 1; visibility: visible; stroke-width: 8;"></path><path stroke="#FFF" stroke-width="4" d="M701 275 L794 407" stroke-dasharray="0" fill="none" id="____ElektriciteitstransportOverijsseltoDrenthe_TRANS_SOURCE_Overijssel_TARGET_Drenthe_electricity" stroke-dashoffset="0" data-gridScale="100" style="opacity: 1; visibility: hidden;"></path><path stroke="#FFF" stroke-width="1" d="M645 490 L794 407" stroke-dasharray="0" fill="none" id="____ElektriciteitstransportOverijsseltoGelderland_TRANS_SOURCE_Overijssel_TARGET_Gelderland_electricity" stroke-dashoffset="0" data-gridScale="100" style="opacity: 1; visibility: visible; stroke-width: 8;"></path><path stroke="#FFF" stroke-width="4" d="M794 407 L645 490" stroke-dasharray="0" fill="none" id="____ElektriciteitstransportGelderlandtoOverijssel_TRANS_SOURCE_Gelderland_TARGET_Overijssel_electricity" stroke-dashoffset="0" data-gridScale="100" style="opacity: 1; visibility: hidden;"></path><path stroke="#FFF" stroke-width="1" d="M587 798 L645 490" stroke-dasharray="0" fill="none" id="____ElektriciteitstransportGelderlandtoLimburg_TRANS_SOURCE_Gelderland_TARGET_Limburg_electricity" stroke-dashoffset="0" data-gridScale="100" style="opacity: 1; visibility: visible; stroke-width: 8;"></path><path stroke="#FFF" stroke-width="4" d="M645 490 L587 798" stroke-dasharray="0" fill="none" id="____ElektriciteitstransportLimburgtoGelderland_TRANS_SOURCE_Limburg_TARGET_Gelderland_electricity" stroke-dashoffset="0" data-gridScale="100" style="opacity: 1; visibility: hidden;"></path><path stroke="#FFF" stroke-width="1" d="M487 579 L587 798" stroke-dasharray="0" fill="none" id="____ElektriciteitstransportLimburgtoNoord-Brabant_TRANS_SOURCE_Limburg_TARGET_Noord-Brabant_electricity" stroke-dashoffset="0" data-gridScale="100" style="opacity: 1; visibility: visible; stroke-width: 8;"></path><path stroke="#FFF" stroke-width="4" d="M587 798 L487 579" stroke-dasharray="0" fill="none" id="____ElektriciteitstransportNoord-BrabanttoLimburg_TRANS_SOURCE_Noord-Brabant_TARGET_Limburg_electricity" stroke-dashoffset="0" data-gridScale="100" style="opacity: 1; visibility: hidden;"></path><path stroke="#FFF" stroke-width="1" d="M316 529 L487 579" stroke-dasharray="0" fill="none" id="____ElektriciteitstransportNoord-BrabanttoZuid-Holland_TRANS_SOURCE_Noord-Brabant_TARGET_Zuid-Holland_electricity" stroke-dashoffset="0" data-gridScale="100" style="opacity: 1; visibility: visible; stroke-width: 8;"></path><path stroke="#FFF" stroke-width="4" d="M487 579 L316 529" stroke-dasharray="0" fill="none" id="____ElektriciteitstransportZuid-HollandtoNoord-Brabant_TRANS_SOURCE_Zuid-Holland_TARGET_Noord-Brabant_electricity" stroke-dashoffset="0" data-gridScale="100" style="opacity: 1; visibility: hidden;"></path><path stroke="#FFF" stroke-width="4" d="M238 662 L487 579" stroke-dasharray="0" fill="none" id="____ElektriciteitstransportNoord-BrabanttoZeeland_TRANS_SOURCE_Noord-Brabant_TARGET_Zeeland_electricity" stroke-dashoffset="0" data-gridScale="100" style="opacity: 1; visibility: visible; stroke-width: 8;"></path><path stroke="#FFF" stroke-width="4" d="M487 579 L238 662" stroke-dasharray="0" fill="none" id="____ElektriciteitstransportZeelandtoNoord-Brabant_TRANS_SOURCE_Zeeland_TARGET_Noord-Brabant_electricity" stroke-dashoffset="0" data-gridScale="100" style="opacity: 1; visibility: hidden;"></path><path stroke="#FFF" stroke-width="4" d="M768 131 L794 407" stroke-dasharray="0" fill="none" id="____ElektriciteitstransportOverijsseltoGroningen_TRANS_SOURCE_Overijssel_TARGET_Groningen_electricity" stroke-dashoffset="0" data-gridScale="100" style="opacity: 1; visibility: visible; stroke-width: 8;"></path><path stroke="#FFF" stroke-width="4" d="M794 407 L768 131" stroke-dasharray="0" fill="none" id="____ElektriciteitstransportGroningentoOverijssel_TRANS_SOURCE_Groningen_TARGET_Overijssel_electricity" stroke-dashoffset="0" data-gridScale="100" style="opacity: 1; visibility: hidden;"></path><path stroke="#FFF" stroke-width="4" d="M579 163 L558 315" stroke-dasharray="0" fill="none" id="____ElektriciteitstransportFlevolandtoFryslan_TRANS_SOURCE_Flevoland_TARGET_Fryslan_electricity" stroke-dashoffset="0" data-gridScale="100" style="opacity: 1; visibility: hidden;"></path><path stroke="#FFF" stroke-width="4" d="M558 315 L579 163" stroke-dasharray="0" fill="none" id="____ElektriciteitstransportFryslantoFlevoland_TRANS_SOURCE_Fryslan_TARGET_Flevoland_electricity" stroke-dashoffset="0" data-gridScale="100" style="opacity: 1; visibility: hidden;"></path><path stroke="#FFF" stroke-width="4" d="M579 163 L768 131" stroke-dasharray="0" fill="none" id="____ElektriciteitstransportGroningentoFryslan_TRANS_SOURCE_Groningen_TARGET_Fryslan_electricity" stroke-dashoffset="0" data-gridScale="100" style="opacity: 1; visibility: visible; stroke-width: 8.13;"></path><path stroke="#FFF" stroke-width="4" d="M768 131 L579 163" stroke-dasharray="0" fill="none" id="____ElektriciteitstransportFryslantoGroningen_TRANS_SOURCE_Fryslan_TARGET_Groningen_electricity" stroke-dashoffset="0" data-gridScale="100" style="opacity: 1; visibility: hidden;"></path><path stroke="#FFF" stroke-width="4" d="M238 662 L111 101" stroke-dasharray="0" fill="none" id="____ElektriciteitstransportWind-Op-ZeetoZeeland_TRANS_SOURCE_Wind-Op-Zee_TARGET_Zeeland_electricity" stroke-dashoffset="0" data-gridScale="100" style="opacity: 1; visibility: visible; stroke-width: 8;"></path><path stroke="#FFF" stroke-width="4" d="M316 529 L111 101" stroke-dasharray="0" fill="none" id="____ElektriciteitstransportWind-Op-ZeetoZuid-Holland_TRANS_SOURCE_Wind-Op-Zee_TARGET_Zuid-Holland_electricity" stroke-dashoffset="0" data-gridScale="100" style="opacity: 1; visibility: visible; stroke-width: 8;"></path><path stroke="#FFF" stroke-width="4" d="M387 350 L111 101" stroke-dasharray="0" fill="none" id="____ElektriciteitstransportWind-Op-ZeetoNoord-Holland_TRANS_SOURCE_Wind-Op-Zee_TARGET_Noord-Holland_electricity" stroke-dashoffset="0" data-gridScale="100" style="opacity: 1; visibility: visible; stroke-width: 8;"></path><path stroke="#FFF" stroke-width="4" d="M768 131 L111 101" stroke-dasharray="0" fill="none" id="____ElektriciteitstransportWind-Op-ZeetoGroningen_TRANS_SOURCE_Wind-Op-Zee_TARGET_Groningen_electricity" stroke-dashoffset="0" data-gridScale="100" style="opacity: 1; visibility: visible; stroke-width: 8;"></path><path stroke="#FFF" stroke-width="4" d="M111 101 L238 662" stroke-dasharray="0" fill="none" id="____ElektriciteitstransportZeelandtoWind-Op-Zee_TRANS_SOURCE_Zeeland_TARGET_Wind-Op-Zee_electricity" stroke-dashoffset="0" data-gridScale="100" style="opacity: 1; visibility: hidden;"></path><path stroke="#FFF" stroke-width="4" d="M111 101 L316 529" stroke-dasharray="0" fill="none" id="____ElektriciteitstransportZuid-HollandtoWind-Op-Zee_TRANS_SOURCE_Zuid-Holland_TARGET_Wind-Op-Zee_electricity" stroke-dashoffset="0" data-gridScale="100" style="opacity: 1; visibility: hidden;"></path><path stroke="#FFF" stroke-width="4" d="M111 101 L387 350" stroke-dasharray="0" fill="none" id="____ElektriciteitstransportNoord-HollandtoWind-Op-Zee_TRANS_SOURCE_Noord-Holland_TARGET_Wind-Op-Zee_electricity" stroke-dashoffset="0" data-gridScale="100" style="opacity: 1; visibility: hidden;"></path><path stroke="#FFF" stroke-width="4" d="M111 101 L768 131" stroke-dasharray="0" fill="none" id="____ElektriciteitstransportGroningentoWind-Op-Zee_TRANS_SOURCE_Groningen_TARGET_Wind-Op-Zee_electricity" stroke-dashoffset="0" data-gridScale="100" style="opacity: 1; visibility: hidden;"></path><path stroke="#FFF" stroke-width="4" d="M952 522 L587 798" stroke-dasharray="0" fill="none" id="____DE-NL_powertransmissionOberzier-Siersdorf_TRANS_ELEX_SOURCE_Limburg_TARGET_DE_electricity" stroke-dashoffset="0" data-gridScale="100" style="opacity: 1; visibility: visible; stroke-width: 8;"></path><path stroke="#FFF" stroke-width="4" d="M952 522 L645 490" stroke-dasharray="0" fill="none" id="____DE-NL_powertransmissionNiederrhein_TRANS_ELEX_SOURCE_Gelderland_TARGET_DE_electricity" stroke-dashoffset="0" data-gridScale="100" style="opacity: 1; visibility: visible; stroke-width: 8;"></path><path stroke="#FFF" stroke-width="4" d="M952 522 L794 407" stroke-dasharray="0" fill="none" id="____DE-NL_powertransmissionGronau_TRANS_ELEX_SOURCE_Overijssel_TARGET_DE_electricity" stroke-dashoffset="0" data-gridScale="100" style="opacity: 1; visibility: visible; stroke-width: 8;"></path><path stroke="#FFF" stroke-width="4" d="M952 522 L768 131" stroke-dasharray="0" fill="none" id="____DE-NL_powertransmissionDiele_TRANS_ELEX_SOURCE_Groningen_TARGET_DE_electricity" stroke-dashoffset="0" data-gridScale="100" style="opacity: 1; visibility: visible; stroke-width: 8;"></path>
<!-- <path stroke="#FFF" stroke-width="4" d="M106 417 L316 529" stroke-dasharray="0" fill="none" id="____NL-GB_powertransmissionBritNed_TRANS_ELEX_SOURCE_Zuid-Holland_TARGET_GB_electricity" stroke-dashoffset="0" data-gridScale="100" style="opacity: 1; visibility: visible; stroke-width: 8;"></path> -->
<!-- <path stroke="#FFF" stroke-width="4" d="M960 249 L768 131" stroke-dasharray="0" fill="none" id="____NL-NO_powertransmissionNorNed_TRANS_ELEX_SOURCE_Groningen_TARGET_NO_electricity" stroke-dashoffset="0" data-gridScale="100" style="opacity: 1; visibility: visible; stroke-width: 8;"></path> -->
<path stroke="#FFF" stroke-width="4" d="M423 793 L587 798" stroke-dasharray="0" fill="none" id="____NL-BE_powertransmissionvanEyck_TRANS_ELEX_SOURCE_Limburg_TARGET_BE_electricity" stroke-dashoffset="0" data-gridScale="100" style="opacity: 1; visibility: visible; stroke-width: 8;"></path><path stroke="#FFF" stroke-width="4" d="M423 793 L238 662" stroke-dasharray="0" fill="none" id="____NL-BE_powertransmissionZandvliet_TRANS_ELEX_SOURCE_Zeeland_TARGET_BE_electricity" stroke-dashoffset="0" data-gridScale="100" style="opacity: 1; visibility: visible; stroke-width: 8;"></path>
<!-- <path stroke="#FFF" stroke-width="4" d="M1034 114 L768 131" stroke-dasharray="0" fill="none" id="____NL-DK_powertransmissionCobra_TRANS_ELEX_SOURCE_Groningen_TARGET_DK_electricity" stroke-dashoffset="0" data-gridScale="100" style="opacity: 1; visibility: visible; stroke-width: 8;"></path> -->
</g>

<!-- 
<g><path stroke="red" stroke-opacity="1" stroke-width="0" stroke-linecap="round" stroke-linejoin="round" fill="#FFF" fill-opacity="0.4" fill-rule="evenodd" d="M563 753L586 754L597 765L597 782L583 798L583 817L572 828L572 849L587 864L626 865L643 848L643 822L625 804L617 803L607 793L624 794L657 761L657 748L648 739L648 725L670 703L671 651L652 632L652 614L630 592L630 571L639 562L661 562L668 556L752 557L783 526L783 510L767 493L767 481L781 482L829 436L829 403L805 378L772 377L763 368L764 334L775 323L832 324L833 261L859 236L862 141L838 116L814 115L766 65L696 64L677 83L636 83L623 96L586 96L520 162L520 243L536 259L573 259L553 279L553 326L489 390L474 390L460 377L460 352L446 338L461 323L481 323L508 296L500 288L484 288L473 277L473 245L457 228L439 228L424 243L410 228L410 221L389 221L366 366L351 425L334 466L287 523L261 523L261 536L269 544L276 544L280 548L280 564L252 564L243 573L243 581L247 584L253 584L260 577L266 577L270 581L271 590L221 591L211 601L211 611L216 616L225 616L235 606L285 654L300 653L304 657L304 675L294 675L253 636L182 638L168 653L198 682L217 681L234 697L253 696L259 690L259 680L265 673L273 682L299 692L305 698L287 699L276 689L266 689L267 699L255 711L250 705L224 706L209 692L185 693L164 713L165 734L173 742L186 742L189 738L189 730L196 722L207 722L216 730L229 730L235 736L235 747L242 753L258 753L271 739L287 739L317 709L317 699L327 699L336 707L347 707L351 703L351 697L341 687L358 670L373 670L373 683L387 683L412 658L425 671L415 681L426 692L436 692L459 669L474 683L468 689L467 700L495 728L519 731L532 718L543 720L551 728L551 740zM392 202L403 176L418 156L430 168L431 187L404 214L392 214zM418 147L444 121L464 111L471 111L457 124L444 132L426 150L421 150zM475 101L485 102L493 94L511 94L533 84L538 78L547 78L551 75L547 71L541 71L490 86zM562 68L562 73L565 75L581 75L623 68L623 65L576 65L574 62L568 62zM657 66L663 66L667 62L684 62L689 57L706 52L707 49L657 58z"></path></g> -->



<g style="pointer-events: none;">
<!-- <circle  cx="126" cy="427" r="30" fill="lightgray" style="stroke: lightgray; stroke-width: 2px; opacity: 0.8; pointer-events: none;"></circle> -->
<circle cx="972" cy="532" r="20" fill="white" style="stroke: lightgray; stroke-width: 0px; opacity: 1; pointer-events: none;"></circle>
<circle cx="443" cy="803" r="20" fill="white" style="stroke: lightgray; stroke-width: 0px; opacity: 1; pointer-events: none;"></circle>
<!-- <circle  cx="980" cy="259" r="30" fill="lightgray" style="stroke: lightgray; stroke-width: 2px; opacity: 0.8; pointer-events: none;"></circle> -->
<!-- <circle  cx="1054" cy="124" r="30" fill="lightgray" style="stroke: lightgray; stroke-width: 2px; opacity: 0.8; pointer-events: none;"></circle> -->
<circle cx="336" cy="539" r="20" fill="white" style="stroke: lightgray; stroke-width: 0px; opacity: 1; pointer-events: none;"></circle>
<circle cx="407" cy="360" r="20" fill="white" style="stroke: lightgray; stroke-width: 0px; opacity: 1; pointer-events: none;"></circle>
<circle cx="788" cy="141" r="20" fill="white" style="stroke: lightgray; stroke-width: 0px; opacity: 1; pointer-events: none;"></circle>
<circle cx="531" cy="463" r="20" fill="white" style="stroke: lightgray; stroke-width: 0px; opacity: 1; pointer-events: none;"></circle>
<circle cx="665" cy="500" r="20" fill="white" style="stroke: lightgray; stroke-width: 0px; opacity: 1; pointer-events: none;"></circle>
<circle cx="258" cy="672" r="20" fill="white" style="stroke: lightgray; stroke-width: 0px; opacity: 1; pointer-events: none;"></circle>
<circle cx="507" cy="589" r="20" fill="white" style="stroke: lightgray; stroke-width: 0px; opacity: 1; pointer-events: none;"></circle>
<circle cx="814" cy="417" r="20" fill="white" style="stroke: lightgray; stroke-width: 0px; opacity: 1; pointer-events: none;"></circle>
<circle cx="599" cy="173" r="20" fill="white" style="stroke: lightgray; stroke-width: 0px; opacity: 1; pointer-events: none;"></circle>
<circle cx="721" cy="285" r="20" fill="white" style="stroke: lightgray; stroke-width: 0px; opacity: 1; pointer-events: none;"></circle>
<circle cx="578" cy="325" r="20" fill="white" style="stroke: lightgray; stroke-width: 0px; opacity: 1; pointer-events: none;"></circle>
<circle cx="607" cy="808" r="20" fill="white" style="stroke: lightgray; stroke-width: 0px; opacity: 1; pointer-events: none;"></circle>
<circle cx="131" cy="111" r="20" fill="white" style="stroke: lightgray; stroke-width: 0px; opacity: 1; pointer-events: none;"></circle>
</g>

</svg>