<?xml version="1.0" encoding="utf-8" standalone="no"?><!-- Generator: Adobe Illustrator 21.1.0, SVG Export Plug-In . SVG Version: 6.00 Build 0)  --><svg xmlns="http://www.w3.org/2000/svg" xmlns:xlink="http://www.w3.org/1999/xlink" height="140px" id="Laag_1" style="enable-background:new 0 0 314 125;" version="1.1" viewBox="0 0 314 125" width="314px" x="0px" xml:space="preserve" y="0px" fill-rule="evenodd">
<style type="text/css">
	.st0{fill:none;}
	.st1{fill:#154273;}
	.st2{fill:#FFFFFF;}
</style>
<g id="Laag_1_1_">
	<g>
		<rect class="st0" height="125" width="314" transform="translate(0,-8) scale(1)"/>
		<rect class="st1" height="130" width="50" transform="translate(0,-8) scale(1)"/>
	</g>
    <!-- <path transform="translate(7,50) scale(1.5)" class="st2" fill="currentColor" d="M12,2A10,10 0 0,0 2,12A10,10 0 0,0 12,22A10,10 0 0,0 22,12A10,10 0 0,0 12,2M7,9.5C7,8.7 7.7,8 8.5,8C9.3,8 10,8.7 10,9.5C10,10.3 9.3,11 8.5,11C7.7,11 7,10.3 7,9.5M12,17.23C10.25,17.23 8.71,16.5 7.81,15.42L9.23,14C9.68,14.72 10.75,15.23 12,15.23C13.25,15.23 14.32,14.72 14.77,14L16.19,15.42C15.29,16.5 13.75,17.23 12,17.23M15.5,11C14.7,11 14,10.3 14,9.5C14,8.7 14.7,8 15.5,8C16.3,8 17,8.7 17,9.5C17,10.3 16.3,11 15.5,11Z" /> -->
	<path transform="translate(0,20) scale(1)"  class="st2" d="M25.9,77.36h-0.87v-2.41h0.87V77.36z M29.83,66.72h-0.87v-2.41h0.87V66.72z M13.71,62.56   c-0.07,0-0.52,0-0.52,0.09c0,0.09,0.21,0.05,0.52,0.1c0.7,0.12,0.97,0.47,1.46,0.47c0.44,0,0.9-0.3,0.72-0.94   c-0.03-0.11-0.09-0.08-0.11-0.01c-0.07,0.29-0.42,0.45-0.79,0.45C14.53,62.72,14.44,62.56,13.71,62.56z M8.92,64.97   c0.08,0.11,0.9,1.17-0.36,1.58c-0.06,0.02-0.07,0.07,0.01,0.11c0.93,0.39,1.38-0.33,1.38-0.33C10.42,67.41,9.7,68,9.7,68   c0.1,0.19,0.55,0.52,1.22,0.67c0.26-0.14,0.62-0.4,0.77-0.8c0,0,0.18,0.47,0.02,0.92c1.9,0.17,2.57-1.35,4.04-1.07   c0.04,0.01,0.06-0.02,0.06-0.06c0-0.94-0.57-2.65-2.39-3c-1.81-0.35-1.32-1.09-1.32-1.09c0.76-0.03,1.2,0.3,1.2,0.3   c0.14-0.23-0.06-0.47-0.06-0.47c0.07-0.09,0.11-0.4,0.11-0.4c-0.86,0-1.08-0.19-1.08-0.19c-0.13-0.51,0.22-1.23,1.5-0.46   c0.32-0.28,0.29-0.72,0.29-0.72c0.1-0.05,0.16-0.2,0.16-0.26c0-0.21-1.02-0.78-1.28-0.85c-0.06-0.31-0.46-0.75-1.66-0.59   c-0.57,0.07-0.98-0.08-0.79-0.41c0.03-0.06-0.07-0.07-0.12-0.01c-0.13,0.13-0.31,0.5,0.18,0.75c0.55,0.28,0.58,0.83,0.59,0.91   c0.01,0.12-0.13,0.13-0.16,0.01c-0.25-0.93-1.53-1.13-2.28-0.64c0.04,0.5,0.58,0.83,0.87,0.83c0.17,0,0.4-0.17,0.4-0.4   c0-0.11,0.06-0.1,0.09-0.01c0.12,0.33-0.37,1.02-1.09,0.6c-0.74,0.74-0.44,1.66-0.37,1.99c0.13,0.6-0.16,1.19-0.71,0.92   c-0.03-0.01-0.06-0.02-0.06,0.04C7.84,64.87,8.33,65.3,8.92,64.97z M13,61.24c-0.35,0.39-0.91,0.3-1.05-0.34   C12.67,60.86,12.97,60.93,13,61.24z M35.07,62.72c-0.37,0-0.72-0.16-0.79-0.45c-0.02-0.07-0.08-0.1-0.11,0.01   c-0.18,0.64,0.28,0.94,0.72,0.94c0.49,0,0.76-0.35,1.46-0.47c0.31-0.05,0.52,0,0.52-0.1c0-0.09-0.45-0.09-0.52-0.09   C35.63,62.56,35.53,62.72,35.07,62.72z M42.23,64.49c0-0.06-0.03-0.05-0.06-0.04c-0.55,0.27-0.84-0.31-0.71-0.92   c0.07-0.34,0.37-1.25-0.37-1.99c-0.73,0.42-1.22-0.27-1.09-0.6c0.03-0.09,0.09-0.1,0.09,0.01c0,0.23,0.23,0.4,0.4,0.4   c0.29,0,0.83-0.33,0.87-0.83c-0.75-0.49-2.03-0.29-2.28,0.64c-0.03,0.12-0.17,0.11-0.16-0.01c0-0.08,0.04-0.63,0.59-0.91   c0.5-0.25,0.32-0.62,0.18-0.75c-0.05-0.05-0.16-0.04-0.12,0.01c0.19,0.33-0.22,0.48-0.78,0.41c-1.2-0.16-1.59,0.29-1.66,0.59   c-0.26,0.07-1.28,0.64-1.28,0.85c0,0.06,0.06,0.22,0.16,0.26c0,0-0.02,0.43,0.29,0.72c1.27-0.77,1.63-0.05,1.5,0.46   c0,0-0.23,0.18-1.09,0.19c0,0,0.04,0.31,0.11,0.4c0,0-0.2,0.25-0.06,0.47c0,0,0.44-0.33,1.2-0.3c0,0,0.49,0.74-1.32,1.09   c-1.81,0.35-2.39,2.06-2.39,3c0,0.05,0.02,0.07,0.06,0.06c1.47-0.27,2.14,1.25,4.04,1.07c-0.17-0.45,0.02-0.92,0.02-0.92   c0.15,0.4,0.51,0.67,0.77,0.8c0.68-0.15,1.12-0.47,1.22-0.67c0,0-0.72-0.59-0.25-1.67c0,0,0.45,0.72,1.38,0.33   c0.08-0.04,0.06-0.09,0.01-0.11c-1.26-0.41-0.44-1.47-0.36-1.58C41.73,65.3,42.23,64.87,42.23,64.49z M38.11,60.9   c-0.14,0.64-0.7,0.73-1.05,0.34C37.09,60.93,37.4,60.86,38.11,60.9z M24.7,50.21c0,0.16,0.07,0.3,0.12,0.38   c0.11,0.16,0.09,0.25,0.04,0.3c-0.05,0.05-0.14,0.07-0.3-0.04c-0.08-0.06-0.22-0.12-0.38-0.12c-0.27,0-0.41,0.18-0.41,0.33   c0,0.15,0.14,0.33,0.41,0.33c0.16,0,0.3-0.07,0.38-0.12c0.16-0.11,0.25-0.09,0.3-0.04c0.05,0.05-0.02,0.6-0.09,1.04   c-0.45,0.1-0.67,0.46-0.67,0.67c0,0.55,0.58,0.86,0.93,1.05c0.34-0.18,0.93-0.5,0.93-1.05c0-0.21-0.22-0.58-0.67-0.67   c-0.06-0.43-0.14-0.99-0.09-1.04c0.05-0.05,0.14-0.07,0.3,0.04c0.08,0.06,0.22,0.12,0.38,0.12c0.27,0,0.41-0.18,0.41-0.33   c0-0.15-0.14-0.33-0.41-0.33c-0.16,0-0.3,0.07-0.38,0.12c-0.16,0.11-0.25,0.09-0.3,0.04c-0.05-0.05-0.07-0.14,0.04-0.3   c0.06-0.08,0.12-0.22,0.12-0.38c0-0.27-0.18-0.41-0.33-0.41C24.88,49.8,24.7,49.94,24.7,50.21z M25.03,54.27   c-0.37,0-0.67,0.3-0.67,0.67c0,0.37,0.3,0.67,0.67,0.67c0.37,0,0.67-0.3,0.67-0.67C25.7,54.57,25.4,54.27,25.03,54.27z    M25.03,60.68c2.67,0,4.17,0.51,4.17,0.51c0.01-1.35,0.01-2.1,0.78-1.99c-0.42-1.13,1.4-1.58,1.4-3.05c0-0.97-0.69-1.08-0.89-1.08   c-0.6,0-0.51,0.39-1.02,0.39c-0.06,0-0.13-0.02-0.13,0.03c0,0.17,0.14,0.46,0.38,0.46c0.32,0,0.32-0.32,0.56-0.32   c0.1,0,0.25,0.08,0.25,0.41c0,0.63-0.41,1.32-0.9,1.86c-0.11-0.15-0.26-0.25-0.45-0.25c-0.29,0-0.54,0.3-0.54,0.67   c0,0.14,0.02,0.24,0.07,0.35c-0.16,0.09-0.31,0.14-0.41,0.14c-0.22,0-0.55-0.09-0.55-0.57c0-1.07,1.43-2.01,1.43-3.37   c0-0.65-0.43-1.29-1.34-1.29c-0.97,0-0.79,0.88-1.63,0.88c-0.04,0-0.07,0.01-0.07,0.05c0,0.06,0.15,0.55,0.58,0.55   c0.46,0,0.59-0.8,1.01-0.8c0.15,0,0.38,0.09,0.38,0.63c0,0.42-0.21,1.11-0.51,1.76c-0.11-0.11-0.26-0.19-0.42-0.19   c-0.36,0-0.62,0.35-0.62,0.76c0,0.26,0.1,0.52,0.28,0.68c-0.21,0.27-0.43,0.49-0.72,0.49c-0.58,0-0.83-0.33-0.83-0.69   c0-0.39,0.71-0.53,0.71-1.13c0-0.41-0.27-0.64-0.52-0.64c-0.28,0-0.42,0.18-0.45,0.18c-0.03,0-0.17-0.18-0.45-0.18   c-0.26,0-0.52,0.23-0.52,0.64c0,0.6,0.71,0.75,0.71,1.13c0,0.36-0.26,0.69-0.83,0.69c-0.29,0-0.51-0.22-0.72-0.49   c0.18-0.17,0.28-0.42,0.28-0.68c0-0.42-0.26-0.76-0.62-0.76c-0.17,0-0.31,0.08-0.42,0.19c-0.3-0.66-0.51-1.34-0.51-1.76   c0-0.54,0.23-0.63,0.38-0.63c0.41,0,0.54,0.8,1.01,0.8c0.43,0,0.58-0.49,0.58-0.55c0-0.03-0.03-0.05-0.07-0.05   c-0.84,0-0.66-0.88-1.63-0.88c-0.9,0-1.34,0.64-1.34,1.29c0,1.36,1.43,2.3,1.43,3.37c0,0.48-0.33,0.57-0.55,0.57   c-0.11,0-0.25-0.05-0.41-0.14c0.05-0.12,0.07-0.21,0.07-0.35c0-0.37-0.25-0.67-0.54-0.67c-0.18,0-0.33,0.1-0.44,0.25   c-0.49-0.54-0.9-1.23-0.9-1.86c0-0.32,0.15-0.41,0.25-0.41c0.23,0,0.24,0.32,0.56,0.32c0.24,0,0.38-0.29,0.38-0.46   c0-0.05-0.07-0.03-0.13-0.03c-0.51,0-0.42-0.39-1.02-0.39c-0.2,0-0.89,0.11-0.89,1.08c0,1.48,1.82,1.92,1.4,3.05   c0.77-0.11,0.76,0.64,0.78,1.99C20.86,61.19,22.36,60.68,25.03,60.68z M20.14,62.67c-0.73,0.16-1.25,0.31-1.48,0.38   c0.01-0.32,0.13-0.62,0.42-0.68c0.04-0.01,0.05-0.06,0.01-0.08c-0.65-0.43-0.99,0.39-1,0.42c-0.23-0.02-0.58,0.05-0.58,0.36   c0,0.93-2.12,1.44-2.61,1.52c0.87,0.33,1.23,1.43,1.23,1.43c0.63-0.63,1.36-1.18,1.53-1.18c0.17,0,0.23,0.21,0.24,0.33   c0,0.04,0.04,0.05,0.07,0.02c0.33-0.49,0.17-0.6,0.14-0.75c-0.02-0.11,0.01-0.54,0.49-0.49v6.19l-0.25,0.05   c-0.11,0.02-1.02-0.75-2.05-1.47c-1.04-0.72-1.59-0.29-2.77,0.35c-1.55,0.84-3.11,0.08-3.11,0.08c-1.33,0.95-1.79,3.71-1.79,3.71   c-0.27,0.11-0.71,0.23-1.12,0.23c-1.02,0-1.2-0.62-1.2-0.98c0-1.57,1.97-2.24,1.97-3.79c0-0.38-0.17-1.9-2.06-1.9   c-0.24,0-1.68,0-1.69,0c-0.71,0-0.88-0.51-0.98-0.7c-0.04-0.08-0.11-0.03-0.08,0.03c0.05,0.13-0.08,0.33-0.08,0.72   c0,0.63,0.37,1.01,1.06,1.01c0.31,0,0.61-0.09,0.7-0.15c0.06-0.04,0.1,0.02,0.07,0.06c-0.3,0.35-0.32,1.01-0.2,1.16   c0.03,0.04,0.07,0.03,0.07,0c0.17-0.66,0.79-1.29,1.63-1.29c1.03,0,1.02,0.87,1.02,1.08c0,1.26-2.21,2.18-2.21,3.92   c0,1.76,1.86,2.13,2.93,1.86c-0.06,1.76-2.08,2.36-2.14,1.1c0-0.06-0.05-0.07-0.08,0.01c-0.25,0.62-0.15,1.17,0.63,1.34   c0.05,0.01,0.03,0.04-0.02,0.08c-0.78,0.49-0.36,2.43-0.32,3c0.06,0.82-0.76,0.72-0.83,0.7c-0.03-0.01-0.07,0-0.01,0.07   c0.58,0.71,1.3,0.06,1.3,0.06c0.54,0.17,0.21,0.63-0.16,0.87c-0.06,0.04-0.05,0.08,0.01,0.08c0.08,0.01,0.92,0.08,1.07-0.59   c0.37,0.44,0.92,0.28,1.03,0.22c0.16-0.08,0.95-0.37,1.02,0.51c0,0.06,0.04,0.02,0.07-0.01c0.59-0.75-0.04-1.21-0.4-1.26   c0.03-0.04,0.5-0.44,0.93,0.11c0.03,0.04,0.06,0.05,0.06-0.03c0.05-0.95-0.72-1.03-1.22-0.62c-0.02-0.1-0.19-0.63,0.56-0.61   c0.02,0,0.05-0.03,0.02-0.06c-0.58-0.62-1.06-0.06-1.18,0.08c-0.26,0.31-0.91,0.18-0.97,0.18c0.2-3.29,3.1-2.12,3.5-3.72   c0.02-0.08,0.06-0.05,0.06-0.02c0.11,0.39,1.09,0.44,1.27-0.32c0.01-0.05,0-0.08-0.03-0.05c-0.84,0.84-2.73-1.78-0.15-3.91   c2.2-1.81,4.17-0.8,4.92-0.21c0.04,0.26-0.12,0.35-0.22,0.38c-0.04,0.01-0.05,0.04,0.01,0.07c0.21,0.08,0.5,0.05,0.64-0.14   c0.47,0.33,0.07,0.75-0.12,0.86c-0.05,0.03-0.03,0.06,0.01,0.07c0.43,0.08,0.79-0.36,0.81-0.62l0.07,0.04v1.87   c0,2.66,3.07,3.03,6.44,5.28c3.37-2.26,6.43-2.62,6.43-5.28v-1.87l0.07-0.04c0.02,0.25,0.37,0.7,0.81,0.62   c0.04-0.01,0.06-0.04,0.01-0.07c-0.19-0.12-0.6-0.53-0.12-0.86c0.14,0.2,0.43,0.22,0.64,0.14c0.06-0.02,0.05-0.06,0.01-0.07   c-0.1-0.03-0.26-0.12-0.22-0.38c0.75-0.6,2.72-1.61,4.92,0.21c2.58,2.13,0.69,4.74-0.15,3.91c-0.04-0.04-0.04,0-0.03,0.05   c0.18,0.77,1.16,0.71,1.27,0.32c0.01-0.03,0.05-0.06,0.06,0.02c0.4,1.6,3.29,0.43,3.5,3.72c-0.06,0.01-0.71,0.13-0.97-0.18   c-0.11-0.13-0.59-0.7-1.18-0.08c-0.04,0.04,0,0.06,0.02,0.06c0.75-0.02,0.59,0.51,0.56,0.61c-0.5-0.41-1.27-0.33-1.22,0.62   c0,0.07,0.03,0.07,0.06,0.03c0.43-0.55,0.9-0.15,0.93-0.11c-0.35,0.05-0.99,0.51-0.4,1.26c0.03,0.03,0.06,0.07,0.07,0.01   c0.08-0.88,0.86-0.6,1.02-0.51c0.11,0.06,0.66,0.22,1.03-0.22c0.15,0.67,0.99,0.6,1.07,0.59c0.06,0,0.06-0.04,0.01-0.08   c-0.36-0.24-0.7-0.7-0.16-0.87c0,0,0.72,0.65,1.3-0.06c0.05-0.06,0.02-0.08-0.01-0.07c-0.07,0.02-0.89,0.12-0.83-0.7   c0.04-0.57,0.46-2.51-0.32-3c-0.05-0.03-0.07-0.06-0.02-0.08c0.78-0.17,0.88-0.72,0.63-1.34c-0.03-0.08-0.08-0.06-0.08-0.01   c-0.06,1.26-2.07,0.66-2.14-1.1c1.08,0.28,2.93-0.1,2.93-1.86c0-1.73-2.21-2.66-2.21-3.92c0-0.21-0.01-1.08,1.02-1.08   c0.84,0,1.46,0.63,1.63,1.29c0.01,0.03,0.04,0.04,0.07,0c0.12-0.16,0.1-0.81-0.2-1.16c-0.03-0.03,0-0.1,0.07-0.06   c0.09,0.06,0.39,0.15,0.7,0.15c0.69,0,1.06-0.38,1.06-1.01c0-0.39-0.14-0.59-0.08-0.72c0.03-0.06-0.05-0.1-0.08-0.03   c-0.1,0.2-0.28,0.7-0.98,0.7c-0.01,0-1.45,0-1.69,0c-1.89,0-2.06,1.53-2.06,1.9c0,1.55,1.97,2.22,1.97,3.79   c0,0.37-0.19,0.98-1.2,0.98c-0.42,0-0.86-0.12-1.12-0.23c0,0-0.45-2.75-1.79-3.71c0,0-1.56,0.76-3.11-0.08   c-1.18-0.64-1.74-1.07-2.78-0.35c-1.04,0.72-1.94,1.49-2.05,1.47l-0.25-0.05v-6.19c0.48-0.05,0.51,0.38,0.49,0.49   c-0.03,0.14-0.18,0.26,0.14,0.75c0.03,0.04,0.06,0.02,0.07-0.02c0.01-0.12,0.08-0.33,0.24-0.33c0.16,0,0.9,0.55,1.53,1.18   c0,0,0.36-1.09,1.23-1.43c-0.49-0.08-2.61-0.59-2.61-1.52c0-0.31-0.35-0.38-0.58-0.36c-0.01-0.03-0.36-0.85-1-0.42   c-0.03,0.02-0.03,0.07,0.01,0.08c0.29,0.07,0.41,0.36,0.42,0.68c-0.62-0.19-3.25-0.93-6.37-0.93c-1.52,0-2.91,0.18-4.02,0.38v2.14   h-0.87V62.67L20.14,62.67 M14.38,84.65C14.15,84.56,14,84.41,14,84.1v-1.33c-0.38-0.13-1.42-0.53-3.51-0.53   c-1.73,0-2.27,0.39-2.3,0.53L7.73,85.3c0,0,0.7-0.64,3.21-0.48c3.02,0.19,6.15,1.98,6.15,0.07v-1.12   C14.73,83.78,14.38,84.54,14.38,84.65z M32.97,83.78v1.12c0,1.9,3.13,0.12,6.15-0.07c2.51-0.16,3.21,0.48,3.21,0.48l-0.46-2.54   c-0.02-0.14-0.57-0.53-2.3-0.53c-2.08,0-3.12,0.4-3.51,0.53v1.33c0,0.3-0.15,0.45-0.38,0.55C35.69,84.54,35.34,83.78,32.97,83.78z    M25.03,82.63c4.87,0,9.81,0.25,10.45,0.99c0.05,0.06,0.07,0,0.07-0.05l0-2.58c0-0.75-5.1-1.19-10.53-1.19   c-5.43,0-10.53,0.44-10.53,1.19l0,2.58c0,0.04,0.02,0.1,0.07,0.05C15.23,82.89,20.17,82.63,25.03,82.63z M20.69,70.47l-0.49-0.13   l-0.04,0.06l-0.57-0.25c0,0,0.42,0,0.51,0c0.05,0,0.05-0.03,0.03-0.05c-0.23-0.23-0.44-0.43-0.44-0.43s0.23,0.09,0.56,0.21   c0.04,0.01,0.05-0.01,0.03-0.04c-0.16-0.23-0.38-0.55-0.38-0.55s0.46,0.31,0.55,0.37c0.03,0.02,0.05,0,0.04-0.03   c-0.12-0.3-0.26-0.65-0.26-0.65l0.5,0.48c0.02,0.02,0.05,0.01,0.04-0.02c-0.05-0.23-0.14-0.65-0.14-0.65l0.37,0.54   c0.02,0.03,0.05,0.02,0.05-0.01c0-0.11,0.01-0.59,0.01-0.59s0.16,0.36,0.23,0.54c0.02,0.04,0.04,0.04,0.06-0.01   c0.02-0.06,0.19-0.46,0.19-0.46l0.02,0.62l-0.08,0.02l-0.1,0.74c0.73-0.17,1.65-1.43,2.35-1.43c0.84,0,1.14,0.98,2.68,0.48   c0.39,0.58,0.53,1.08,0.68,1.77c0.6,0.56,1.43,0.37,1.43-0.22c0-0.8-0.87-0.95-0.87-1.79c0-0.37,0.26-0.91,0.97-0.91   c0.38,0,0.93,0.16,1.25,0.16c0.38,0,0.46-0.27,0.5-0.39c0.03-0.08,0.14-0.06,0.13,0.01c-0.01,0.08,0.04,0.19,0.04,0.37   c0,0.53-0.77,0.6-0.86,0.53c-0.04-0.03-0.07,0.01-0.04,0.04c0.12,0.09,0.09,0.41-0.05,0.61c-0.02,0.02-0.04,0.02-0.04,0   c-0.08-0.38-0.53-0.85-0.92-0.85c-0.14,0-0.43,0.08-0.43,0.42c0,0.47,0.95,0.91,0.95,1.89c0,1.02-1.01,1.27-2.03,1.01   c0.03,0.97,1.48,1.54,1.51,0.85c0-0.05,0.03-0.02,0.04,0c0.21,0.3,0.12,0.52-0.16,0.64c0.25,0.11,0.3,0.62,0.37,0.93   c0.11,0.46,0.59,0.2,0.62,0.19c0.03-0.02,0.04,0,0.02,0.03c-0.18,0.47-0.67,0.29-0.67,0.29c-0.25,0.18,0.05,0.34,0.28,0.41   c0.03,0.01,0.03,0.03,0.01,0.05c-0.17,0.06-0.53,0.18-0.71-0.13c-0.13,0.32-0.4,0.31-0.5,0.31c-0.19,0-0.31,0.19-0.27,0.45   c0,0.02-0.01,0.03-0.03,0.02c-0.44-0.29-0.19-0.64-0.01-0.73c-0.03-0.02-0.34-0.15-0.47,0.21c-0.01,0.03-0.03,0.03-0.04,0   c-0.19-0.52,0.23-0.67,0.53-0.54c-0.02-0.07-0.18-0.33-0.58-0.24c-0.02,0.01-0.03,0-0.02-0.03c0.07-0.16,0.26-0.39,0.63-0.16   c0.19,0.12,0.51-0.05,0.54-0.07c-0.65-1.29-1.9-0.21-2.19-1.22c-0.01-0.02-0.03-0.04-0.05,0.02c-0.07,0.21-0.62,0.23-0.72-0.19   c-0.01-0.03,0-0.04,0.03-0.02c0.08,0.08,0.25,0.15,0.48-0.17c0.15-0.22,0.17-0.51,0.17-0.7c0-0.78-0.78-2.1-2-2.1   c-0.77,0-1.6,0.3-2.22,0.75l0.57,0.13c-0.05,0.58-0.61,0.92-1.12,0.77l0.09-0.66c-0.09,0.03-0.31,0.11-0.43,0.28   c-0.01,0.01-0.03,0.01-0.03-0.01c-0.1-0.38,0.21-0.57,0.3-0.61c0.01-0.01,0.01-0.01-0.01-0.01c-0.28-0.01-0.43,0.19-0.48,0.26   c-0.01,0.01-0.02,0.01-0.02,0C20.61,70.8,20.56,70.61,20.69,70.47z M22.4,74.95c-0.22,0.27-0.41,0.01-0.7,0.01   c-0.27,0-0.32,0.23-0.32,0.32c0,0.02-0.01,0.02-0.02,0.01c-0.31-0.42,0.04-0.65,0.24-0.68c-0.03-0.03-0.33-0.23-0.52,0.05   c-0.01,0.02-0.03,0.01-0.03-0.01c-0.01-0.52,0.4-0.56,0.68-0.33c0.05-0.2-0.08-0.33-0.3-0.34c-0.03,0-0.03-0.02-0.02-0.03   c0.09-0.1,0.18-0.14,0.27-0.14c0.29,0,0.33,0.37,0.52,0.37c0.28,0,0.69-0.38,0.72-0.42c-0.01-0.02-0.28-0.76-0.23-1.2   c0-0.02-0.01-0.02-0.02-0.01c-0.14,0.08-0.48,0.07-0.48-0.35c0-0.03,0.01-0.04,0.03-0.01c0.15,0.21,0.4-0.03,0.52-0.17   c0.13-0.15,0.85-1.19,1.8-1.19c0.21,0,0.48,0.12,0.7,0.27c-0.33,0.4,0,0.78,0.24,0.73c0.03-0.01,0.03,0.02,0.01,0.03   c-1.26,0.47-1.82,0.66-1.82,1.72c0,0.55,0.19,0.86,0.51,0.78c0.02-0.01,0.03,0,0.01,0.02c-0.12,0.14-0.25,0.19-0.36,0.19   c-0.26,0-0.31-0.14-0.45-0.14c-0.14,0-0.61,0.28-0.61,0.51c0,0.09,0.06,0.21,0.22,0.31c0.01,0.01,0,0.02,0,0.02   C22.85,75.27,22.48,75.3,22.4,74.95z M25.71,64.7c-0.39-0.02-0.65,0.06-0.63,0.19C25.27,65.09,25.52,65.07,25.71,64.7z    M24.26,65.67c0.28-0.07,0.58-0.04,0.62-0.03c0.04,0.01,0.04,0.08-0.01,0.09c-0.58,0.07-0.61,0.34-0.98,0.34   c-0.24,0-0.51-0.25-0.41-0.61c0.01-0.05,0.05-0.05,0.06,0C23.58,65.62,23.81,65.79,24.26,65.67z M16.73,78.53   c0.38,0.49,0.75,0.03,1.26,0.03c0.25,0,0.55,0.08,0.6,0.58c0,0.03,0.02,0.03,0.05,0c0.55-0.75-0.08-1.17-0.44-1.23   c0.08-0.07,0.61-0.4,0.96,0.09c0.02,0.03,0.06,0.02,0.06-0.02c0-0.95-0.71-1.02-1.23-0.61c-0.1-0.37,0.18-0.61,0.54-0.61   c0.04,0,0.06-0.03,0.04-0.05c-0.64-0.68-1.11,0.18-1.22,0.31c-0.25,0.34-1.16-0.3-1.53-0.68c0,0,0.8-0.84,0.8-1.61   c0-0.05-0.01-0.11-0.01-0.14c0-0.02,0.01-0.03,0.03-0.02c0.08,0.05,0.19,0.08,0.3,0.08c0.18,0,0.53-0.06,0.53-0.71   c0-0.05-0.02-0.05-0.04-0.02c-0.1,0.14-0.2,0.17-0.28,0.17c-0.65,0-2-2.16-3.6-2.16c-0.42,0-1.21,0.3-1.6,0.73   c0.19,0.11,0.23,0.35,0.21,0.52c-0.03,0.27-0.25,0.41-0.47,0.47c-0.04,0.01-0.04,0.04,0,0.06c0.81,0.31,2.27,0.86,2.61,1.15   c0.39,0.34,0.32,0.98,0.09,1.87c-0.22,0.85-0.69,0.74-0.87,0.71c-0.03,0-0.03,0.01-0.02,0.03c0.21,0.26,0.46,0.35,0.68,0.35   c0.42,0,0.58-0.26,0.79-0.26c0.36,0,1.13,0.52,1.13,0.92c0,0.22-0.17,0.43-0.4,0.57c-0.01,0.01-0.01,0.03,0.01,0.03   C15.88,79.11,16.59,79.17,16.73,78.53z M34.36,79.08c0.02,0,0.03-0.02,0.01-0.03c-0.22-0.15-0.4-0.35-0.4-0.57   c0-0.4,0.76-0.92,1.13-0.92c0.22,0,0.37,0.26,0.79,0.26c0.22,0,0.47-0.09,0.68-0.35c0.02-0.02,0.01-0.04-0.02-0.03   c-0.17,0.03-0.65,0.14-0.87-0.71c-0.23-0.89-0.31-1.53,0.09-1.87c0.33-0.29,1.8-0.84,2.61-1.15c0.04-0.02,0.04-0.05,0-0.06   c-0.22-0.06-0.44-0.2-0.47-0.47c-0.02-0.17,0.02-0.4,0.21-0.52c-0.4-0.43-1.19-0.73-1.61-0.73c-1.6,0-2.95,2.16-3.6,2.16   c-0.08,0-0.19-0.03-0.28-0.17c-0.02-0.03-0.04-0.03-0.04,0.02c0,0.65,0.35,0.71,0.53,0.71c0.1,0,0.22-0.03,0.3-0.08   c0.02-0.01,0.03,0,0.03,0.02c0,0.03-0.01,0.09-0.01,0.14c0,0.77,0.8,1.61,0.8,1.61c-0.36,0.38-1.27,1.01-1.53,0.68   c-0.11-0.14-0.58-0.99-1.22-0.31c-0.02,0.03-0.01,0.05,0.04,0.05c0.36,0,0.64,0.24,0.54,0.61c-0.52-0.41-1.23-0.34-1.23,0.61   c0,0.04,0.04,0.05,0.06,0.02c0.34-0.49,0.88-0.16,0.95-0.09c-0.36,0.05-0.98,0.48-0.44,1.23c0.02,0.03,0.04,0.03,0.05,0   c0.06-0.49,0.36-0.58,0.6-0.58c0.5,0,0.87,0.46,1.26-0.03C33.48,79.17,34.19,79.11,34.36,79.08z M21.45,66.61   c-0.05,0.07-0.22,0-0.28-0.03c-0.01-0.01-0.02,0-0.01,0.01c0.04,0.09,0.2,0.36,0.44,0.36c0.11,0,0.27-0.06,0.31-0.14   c0,0,0.94,0.31,1.4,0.43c-0.18,0.24-0.29,0.53-0.32,0.84c-0.37-0.23-1.87-1.03-1.87-1.03l-0.46,0.64c-0.08,0.1-0.45-0.17-0.37-0.27   l0.35-0.49c-0.12-0.12-0.4-0.05-0.48-0.02c-0.01,0-0.02,0-0.01-0.02c0.05-0.1,0.22-0.39,0.66-0.26c0-0.27-0.4-0.18-0.51-0.15   c-0.01,0-0.02,0-0.01-0.01c0.11-0.12,0.44-0.38,0.8-0.16l0.16-0.22l-0.32-0.34l0.2-0.28l0.23,0.3l1.73-2.37   c0.04-0.06,0.39-0.16,0.51-0.19c0.01,0.13,0.03,0.49-0.01,0.55l-1.7,2.39l0.36,0.12l-0.2,0.28l-0.42-0.2L21.45,66.61z M27.52,66.22   c0,0.22,0.13,0.54,0.42,0.44c0.01-0.01,0.03,0,0.02,0.01c-0.04,0.24-0.48,0.46-0.67,0.18c-0.18,0.37-0.13,0.72,0.24,0.92   c0.02,0.01,0.02,0.04,0,0.06c-0.23,0.16-0.58,0.13-0.74-0.19c-0.31,0.23-0.27,0.73-0.08,0.9c0,0-0.86,0.51-1.64,0.15   c-0.52-0.25-0.94-0.57-1.61-0.51c0.09-0.94,0.56-1.18,1.42-1.32c0.69-0.11,0.77-0.43,0.68-0.67c-0.23-0.06-0.66,0.15-0.66,0.15   c-0.08-0.13,0.03-0.26,0.03-0.26c-0.04-0.05-0.06-0.22-0.06-0.22c0.48,0,0.57-0.11,0.57-0.11c0.09-0.5-0.42-0.55-0.81-0.28   c-0.18-0.16-0.15-0.37-0.15-0.37c-0.05-0.03-0.09-0.11-0.09-0.15c0-0.12,0.57-0.44,0.72-0.48c0.04-0.17,0.24-0.4,0.85-0.34   c0.07-0.16-0.05-0.75-0.12-0.9c-0.02-0.05,0.01-0.07,0.06-0.04c0.21,0.13,0.42,0.63,0.57,0.64c0,0,0.68-0.36,0.71-0.34   c0.03,0.02,0.13,0.78,0.13,0.78c0.09,0.11,0.62,0,0.85,0.1c0.06,0.03,0.06,0.07,0,0.08c-0.17,0.03-0.72,0.27-0.81,0.42   C27.67,65.34,27.52,66.03,27.52,66.22z"/>
</g>
<g id="Isolatiemodus">
	<!-- <g transform="translate(62,55)">
		<path d="M 49.776 11.488 L 49.776 11.216 A 1.835 1.835 0 0 0 50.231 10.968 A 2.175 2.175 0 0 0 50.352 10.872 A 0.932 0.932 0 0 0 50.501 10.714 A 0.602 0.602 0 0 0 50.624 10.352 L 50.624 4.944 L 49.584 4.512 L 49.584 4.16 Q 50.128 4 50.64 3.936 Q 51.152 3.872 51.504 3.872 L 51.888 3.872 L 51.888 4.736 Q 52.304 4.336 52.92 4.088 Q 53.536 3.84 54.24 3.84 Q 54.8 3.84 55.304 4.112 A 2.069 2.069 0 0 1 55.718 4.402 A 1.63 1.63 0 0 1 56.048 4.816 Q 56.315 4.549 56.764 4.315 A 5.284 5.284 0 0 1 57.128 4.144 Q 57.84 3.84 58.512 3.84 A 2.638 2.638 0 0 1 59.232 3.933 A 1.982 1.982 0 0 1 60.128 4.464 A 1.918 1.918 0 0 1 60.554 5.167 Q 60.662 5.469 60.706 5.841 A 4.646 4.646 0 0 1 60.736 6.384 L 60.736 10.816 L 61.568 11.056 L 61.568 11.36 A 3.579 3.579 0 0 1 61.168 11.485 A 4.688 4.688 0 0 1 60.808 11.56 A 5.001 5.001 0 0 1 60.303 11.618 A 6.5 6.5 0 0 1 59.872 11.632 Q 59.632 11.632 59.352 11.6 A 2.553 2.553 0 0 1 59.07 11.552 A 1.977 1.977 0 0 1 58.848 11.488 L 58.848 11.216 A 1.023 1.023 0 0 0 59.075 11.087 A 0.783 0.783 0 0 0 59.288 10.84 Q 59.424 10.592 59.424 10.16 L 59.424 7.04 A 4.199 4.199 0 0 0 59.389 6.474 Q 59.3 5.825 58.99 5.464 A 1.265 1.265 0 0 0 58.976 5.448 A 1.478 1.478 0 0 0 57.929 4.949 A 2.036 2.036 0 0 0 57.792 4.944 Q 57.36 4.944 56.96 5.048 Q 56.56 5.152 56.256 5.312 Q 56.304 5.568 56.328 5.888 A 8.351 8.351 0 0 1 56.352 6.507 A 9.408 9.408 0 0 1 56.352 6.512 L 56.352 10.816 L 57.184 11.056 L 57.184 11.36 A 3.65 3.65 0 0 1 56.781 11.486 A 4.651 4.651 0 0 1 56.432 11.56 A 4.769 4.769 0 0 1 55.963 11.616 A 6.374 6.374 0 0 1 55.504 11.632 Q 55.248 11.632 54.976 11.6 A 2.629 2.629 0 0 1 54.571 11.521 A 2.348 2.348 0 0 1 54.464 11.488 L 54.464 11.216 A 1.023 1.023 0 0 0 54.691 11.087 A 0.783 0.783 0 0 0 54.904 10.84 Q 55.04 10.592 55.04 10.16 L 55.04 7.216 A 7.058 7.058 0 0 0 55.017 6.623 Q 54.945 5.774 54.648 5.416 A 1.271 1.271 0 0 0 53.887 4.977 A 1.92 1.92 0 0 0 53.52 4.944 A 2.847 2.847 0 0 0 52.779 5.039 A 2.614 2.614 0 0 0 52.616 5.088 Q 52.273 5.205 52.04 5.363 A 1.515 1.515 0 0 0 51.936 5.44 L 51.936 10.816 L 52.832 11.056 L 52.832 11.36 Q 52.416 11.504 51.992 11.568 A 5.165 5.165 0 0 1 51.62 11.609 Q 51.437 11.624 51.231 11.629 A 9.947 9.947 0 0 1 50.976 11.632 Q 50.688 11.632 50.368 11.6 A 3.48 3.48 0 0 1 49.987 11.541 A 2.883 2.883 0 0 1 49.776 11.488 Z M 0.08 11.488 L 0.08 11.184 Q 0.512 11.072 0.76 10.792 Q 0.983 10.54 1.006 10.112 A 1.86 1.86 0 0 0 1.008 10.016 L 1.008 2.08 L 0 1.824 L 0 1.472 Q 0.448 1.36 0.912 1.288 A 6.246 6.246 0 0 1 1.857 1.216 A 6.815 6.815 0 0 1 1.872 1.216 Q 2.208 1.216 2.6 1.256 Q 2.992 1.296 3.328 1.376 L 3.328 1.68 Q 2.896 1.792 2.648 2.048 Q 2.4 2.304 2.4 2.8 L 2.4 5.712 L 6.784 5.712 L 6.784 2.08 L 5.76 1.824 L 5.76 1.472 Q 6.208 1.36 6.672 1.288 A 6.246 6.246 0 0 1 7.617 1.216 A 6.815 6.815 0 0 1 7.632 1.216 A 6.964 6.964 0 0 1 8.135 1.235 A 8.248 8.248 0 0 1 8.376 1.256 Q 8.768 1.296 9.104 1.376 L 9.104 1.68 A 1.808 1.808 0 0 0 8.771 1.8 A 1.289 1.289 0 0 0 8.416 2.048 A 0.815 0.815 0 0 0 8.216 2.388 Q 8.176 2.517 8.164 2.673 A 1.747 1.747 0 0 0 8.16 2.8 L 8.16 10.768 L 9.184 11.024 L 9.184 11.376 Q 8.736 11.504 8.272 11.576 A 6.246 6.246 0 0 1 7.327 11.648 A 6.815 6.815 0 0 1 7.312 11.648 Q 6.96 11.648 6.576 11.608 A 5.993 5.993 0 0 1 6.115 11.542 A 5.071 5.071 0 0 1 5.856 11.488 L 5.856 11.184 Q 6.288 11.072 6.536 10.792 Q 6.759 10.54 6.782 10.112 A 1.86 1.86 0 0 0 6.784 10.016 L 6.784 6.672 L 2.4 6.672 L 2.4 10.768 L 3.408 11.024 L 3.408 11.376 Q 2.96 11.504 2.496 11.576 A 6.246 6.246 0 0 1 1.551 11.648 A 6.815 6.815 0 0 1 1.536 11.648 Q 1.2 11.648 0.808 11.608 Q 0.416 11.568 0.08 11.488 Z M 17.76 11.488 L 17.76 11.216 A 1.847 1.847 0 0 0 18.348 10.876 A 2.136 2.136 0 0 0 18.352 10.872 A 0.932 0.932 0 0 0 18.501 10.714 A 0.602 0.602 0 0 0 18.624 10.352 L 18.624 1.072 L 17.568 0.64 L 17.568 0.288 A 6.806 6.806 0 0 1 18.428 0.093 A 6.067 6.067 0 0 1 18.632 0.064 A 11.014 11.014 0 0 1 18.968 0.028 Q 19.268 0 19.488 0 L 20.032 0 L 19.936 0.896 L 19.936 7.296 L 20.816 6.528 A 6.413 6.413 0 0 0 21.896 5.339 A 7.15 7.15 0 0 0 21.96 5.248 A 4.181 4.181 0 0 0 22.204 4.849 Q 22.448 4.389 22.463 4.017 A 1.203 1.203 0 0 0 22.464 3.968 A 3.05 3.05 0 0 1 22.809 3.883 A 2.746 2.746 0 0 1 22.872 3.872 Q 23.072 3.84 23.312 3.84 Q 23.488 3.84 23.64 3.88 Q 23.792 3.92 23.952 3.984 A 1.356 1.356 0 0 1 23.886 4.347 Q 23.779 4.686 23.502 5.106 A 5.649 5.649 0 0 1 23.4 5.256 A 4.935 4.935 0 0 1 22.885 5.865 Q 22.431 6.328 21.776 6.8 L 21.216 7.2 L 23.68 10.192 Q 24.016 10.592 24.312 10.776 A 1.47 1.47 0 0 0 24.52 10.884 Q 24.7 10.96 24.864 10.96 L 24.864 11.296 Q 24.608 11.472 24.32 11.552 A 2.162 2.162 0 0 1 23.955 11.619 A 2.777 2.777 0 0 1 23.68 11.632 Q 23.344 11.632 23.056 11.48 A 1.41 1.41 0 0 1 22.706 11.215 A 1.803 1.803 0 0 1 22.544 11.024 L 19.936 7.584 L 19.936 10.816 L 20.768 11.072 L 20.768 11.376 A 5.627 5.627 0 0 1 20.279 11.51 A 4.472 4.472 0 0 1 19.92 11.576 Q 19.52 11.632 18.96 11.632 Q 18.688 11.632 18.36 11.6 A 3.584 3.584 0 0 1 18.009 11.549 A 2.858 2.858 0 0 1 17.76 11.488 Z M 33.808 11.488 L 33.808 11.216 A 1.835 1.835 0 0 0 34.263 10.968 A 2.175 2.175 0 0 0 34.384 10.872 A 0.932 0.932 0 0 0 34.533 10.714 A 0.602 0.602 0 0 0 34.656 10.352 L 34.656 4.944 L 33.616 4.512 L 33.616 4.16 Q 34.16 4 34.672 3.936 Q 35.184 3.872 35.536 3.872 L 35.92 3.872 L 35.92 4.736 A 2.607 2.607 0 0 1 36.446 4.334 A 3.528 3.528 0 0 1 36.96 4.088 Q 37.6 3.84 38.288 3.84 A 2.538 2.538 0 0 1 39.046 3.948 A 2.042 2.042 0 0 1 39.904 4.472 A 2.006 2.006 0 0 1 40.382 5.283 Q 40.482 5.597 40.514 5.977 A 4.357 4.357 0 0 1 40.528 6.336 L 40.528 10.816 L 41.36 11.056 L 41.36 11.36 Q 41.05 11.484 40.642 11.555 A 5.034 5.034 0 0 1 40.616 11.56 A 5.001 5.001 0 0 1 40.111 11.618 A 6.5 6.5 0 0 1 39.68 11.632 Q 39.424 11.632 39.152 11.6 A 2.629 2.629 0 0 1 38.747 11.521 A 2.348 2.348 0 0 1 38.64 11.488 L 38.64 11.216 A 1.023 1.023 0 0 0 38.867 11.087 A 0.783 0.783 0 0 0 39.08 10.84 Q 39.216 10.592 39.216 10.16 L 39.216 7.104 A 4.817 4.817 0 0 0 39.184 6.531 Q 39.097 5.804 38.768 5.44 A 1.467 1.467 0 0 0 37.703 4.946 A 1.933 1.933 0 0 0 37.616 4.944 A 3.068 3.068 0 0 0 36.679 5.086 A 2.927 2.927 0 0 0 36.672 5.088 A 3.061 3.061 0 0 0 36.375 5.2 Q 36.231 5.263 36.114 5.336 A 1.455 1.455 0 0 0 35.968 5.44 L 35.968 10.816 L 36.864 11.056 L 36.864 11.36 Q 36.464 11.504 36.032 11.568 Q 35.67 11.622 35.196 11.63 A 10.246 10.246 0 0 1 35.008 11.632 Q 34.72 11.632 34.4 11.6 A 3.48 3.48 0 0 1 34.019 11.541 A 2.883 2.883 0 0 1 33.808 11.488 Z M 26 9.04 L 26 4.944 L 25.088 4.496 L 25.088 4.16 Q 25.632 4 26.088 3.928 A 6.82 6.82 0 0 1 26.439 3.881 Q 26.605 3.864 26.751 3.858 A 3.459 3.459 0 0 1 26.88 3.856 L 27.408 3.856 L 27.312 4.752 L 27.312 8.368 Q 27.312 9.616 27.704 10.104 A 1.262 1.262 0 0 0 28.441 10.549 A 1.961 1.961 0 0 0 28.864 10.592 Q 29.312 10.592 29.736 10.448 Q 30.16 10.304 30.432 10.128 L 30.432 4.944 L 29.504 4.496 L 29.504 4.16 Q 30.048 4 30.512 3.928 Q 30.867 3.873 31.147 3.86 A 3.577 3.577 0 0 1 31.312 3.856 L 31.84 3.856 L 31.744 4.752 L 31.744 10.16 A 1.382 1.382 0 0 0 31.862 10.394 A 1.828 1.828 0 0 0 31.992 10.576 A 8.294 8.294 0 0 0 32.328 10.966 A 9.014 9.014 0 0 0 32.352 10.992 Q 32.176 11.184 31.872 11.392 Q 31.568 11.6 31.264 11.744 Q 31.024 11.584 30.824 11.336 A 2.164 2.164 0 0 1 30.569 10.942 A 1.942 1.942 0 0 1 30.512 10.816 Q 30.208 11.088 29.576 11.376 A 3.247 3.247 0 0 1 28.26 11.664 A 3.734 3.734 0 0 1 28.208 11.664 A 2.64 2.64 0 0 1 27.509 11.576 A 1.952 1.952 0 0 1 26.6 11.04 Q 26.165 10.587 26.045 9.739 A 5.024 5.024 0 0 1 26 9.04 Z M 14.544 7.344 L 14.544 6.912 A 7.897 7.897 0 0 0 14.528 6.388 Q 14.471 5.528 14.208 5.216 A 1.026 1.026 0 0 0 13.755 4.911 Q 13.487 4.816 13.12 4.816 Q 12.464 4.816 11.84 5.088 Q 11.216 5.36 10.72 5.856 Q 10.704 5.744 10.688 5.624 A 1.87 1.87 0 0 1 10.672 5.384 A 2.045 2.045 0 0 1 10.672 5.376 Q 10.672 4.629 11.254 4.208 A 1.737 1.737 0 0 1 11.288 4.184 Q 11.83 3.811 12.973 3.766 A 8.257 8.257 0 0 1 13.296 3.76 Q 14.218 3.76 14.838 4.1 A 2.145 2.145 0 0 1 15.184 4.336 A 1.883 1.883 0 0 1 15.861 5.662 A 2.65 2.65 0 0 1 15.872 5.904 Q 15.872 6.1 15.858 6.441 A 34.942 34.942 0 0 1 15.848 6.664 Q 15.832 7.01 15.819 7.285 A 277.052 277.052 0 0 0 15.808 7.52 L 15.76 10.112 Q 15.84 10.32 16.016 10.544 Q 16.192 10.768 16.4 10.928 Q 16.224 11.136 15.92 11.36 A 4.966 4.966 0 0 1 15.473 11.654 A 4.317 4.317 0 0 1 15.312 11.744 Q 15.088 11.6 14.904 11.408 Q 14.72 11.216 14.576 10.96 Q 14.299 11.224 13.848 11.422 A 4.076 4.076 0 0 1 13.648 11.504 Q 13.056 11.728 12.416 11.728 Q 11.52 11.728 10.952 11.224 A 1.618 1.618 0 0 1 10.386 10.047 A 2.012 2.012 0 0 1 10.384 9.952 Q 10.384 8.896 11.488 8.12 Q 12.359 7.508 13.756 7.379 A 8.553 8.553 0 0 1 14.544 7.344 Z M 46.544 7.344 L 46.544 6.912 A 7.897 7.897 0 0 0 46.528 6.388 Q 46.47 5.528 46.208 5.216 A 1.026 1.026 0 0 0 45.755 4.911 Q 45.487 4.816 45.12 4.816 Q 44.464 4.816 43.84 5.088 Q 43.216 5.36 42.72 5.856 Q 42.704 5.744 42.688 5.624 A 1.87 1.87 0 0 1 42.672 5.384 A 2.045 2.045 0 0 1 42.672 5.376 Q 42.672 4.629 43.254 4.208 A 1.737 1.737 0 0 1 43.288 4.184 Q 43.83 3.811 44.973 3.766 A 8.257 8.257 0 0 1 45.296 3.76 Q 46.218 3.76 46.838 4.1 A 2.145 2.145 0 0 1 47.184 4.336 A 1.883 1.883 0 0 1 47.861 5.662 A 2.65 2.65 0 0 1 47.872 5.904 Q 47.872 6.1 47.858 6.441 A 34.942 34.942 0 0 1 47.848 6.664 Q 47.831 7.01 47.819 7.285 A 277.052 277.052 0 0 0 47.808 7.52 L 47.76 10.112 Q 47.84 10.32 48.016 10.544 Q 48.192 10.768 48.4 10.928 Q 48.224 11.136 47.92 11.36 A 4.966 4.966 0 0 1 47.473 11.654 A 4.317 4.317 0 0 1 47.312 11.744 Q 47.088 11.6 46.904 11.408 Q 46.72 11.216 46.576 10.96 Q 46.299 11.224 45.848 11.422 A 4.076 4.076 0 0 1 45.648 11.504 Q 45.056 11.728 44.416 11.728 Q 43.52 11.728 42.952 11.224 A 1.618 1.618 0 0 1 42.386 10.047 A 2.012 2.012 0 0 1 42.384 9.952 Q 42.384 8.896 43.488 8.12 Q 44.359 7.508 45.756 7.379 A 8.553 8.553 0 0 1 46.544 7.344 Z M 66.752 7.344 L 66.752 6.912 A 7.897 7.897 0 0 0 66.736 6.388 Q 66.679 5.528 66.416 5.216 A 1.026 1.026 0 0 0 65.963 4.911 Q 65.695 4.816 65.328 4.816 Q 64.672 4.816 64.048 5.088 Q 63.424 5.36 62.928 5.856 Q 62.912 5.744 62.896 5.624 A 1.87 1.87 0 0 1 62.88 5.384 A 2.045 2.045 0 0 1 62.88 5.376 Q 62.88 4.629 63.462 4.208 A 1.737 1.737 0 0 1 63.496 4.184 Q 64.038 3.811 65.181 3.766 A 8.257 8.257 0 0 1 65.504 3.76 Q 66.426 3.76 67.046 4.1 A 2.145 2.145 0 0 1 67.392 4.336 A 1.883 1.883 0 0 1 68.069 5.662 A 2.65 2.65 0 0 1 68.08 5.904 Q 68.08 6.1 68.066 6.441 A 34.942 34.942 0 0 1 68.056 6.664 Q 68.039 7.01 68.027 7.285 A 277.052 277.052 0 0 0 68.016 7.52 L 67.968 10.112 Q 68.048 10.32 68.224 10.544 Q 68.4 10.768 68.608 10.928 Q 68.432 11.136 68.128 11.36 A 4.966 4.966 0 0 1 67.681 11.654 A 4.317 4.317 0 0 1 67.52 11.744 Q 67.296 11.6 67.112 11.408 Q 66.928 11.216 66.784 10.96 Q 66.507 11.224 66.056 11.422 A 4.076 4.076 0 0 1 65.856 11.504 Q 65.264 11.728 64.624 11.728 Q 63.728 11.728 63.16 11.224 A 1.618 1.618 0 0 1 62.594 10.047 A 2.012 2.012 0 0 1 62.592 9.952 Q 62.592 8.896 63.696 8.12 Q 64.567 7.508 65.964 7.379 A 8.553 8.553 0 0 1 66.752 7.344 Z M 78.88 7.344 L 78.88 6.912 A 7.897 7.897 0 0 0 78.864 6.388 Q 78.806 5.528 78.544 5.216 A 1.026 1.026 0 0 0 78.091 4.911 Q 77.823 4.816 77.456 4.816 Q 76.8 4.816 76.176 5.088 Q 75.552 5.36 75.056 5.856 Q 75.04 5.744 75.024 5.624 A 1.87 1.87 0 0 1 75.008 5.384 A 2.045 2.045 0 0 1 75.008 5.376 Q 75.008 4.629 75.59 4.208 A 1.737 1.737 0 0 1 75.624 4.184 Q 76.166 3.811 77.309 3.766 A 8.257 8.257 0 0 1 77.632 3.76 Q 78.554 3.76 79.174 4.1 A 2.145 2.145 0 0 1 79.52 4.336 A 1.883 1.883 0 0 1 80.197 5.662 A 2.65 2.65 0 0 1 80.208 5.904 Q 80.208 6.1 80.194 6.441 A 34.942 34.942 0 0 1 80.184 6.664 Q 80.167 7.01 80.155 7.285 A 277.052 277.052 0 0 0 80.144 7.52 L 80.096 10.112 Q 80.176 10.32 80.352 10.544 Q 80.528 10.768 80.736 10.928 Q 80.56 11.136 80.256 11.36 A 4.966 4.966 0 0 1 79.809 11.654 A 4.317 4.317 0 0 1 79.648 11.744 Q 79.424 11.6 79.24 11.408 Q 79.056 11.216 78.912 10.96 Q 78.635 11.224 78.184 11.422 A 4.076 4.076 0 0 1 77.984 11.504 Q 77.392 11.728 76.752 11.728 Q 75.856 11.728 75.288 11.224 A 1.618 1.618 0 0 1 74.722 10.047 A 2.012 2.012 0 0 1 74.72 9.952 Q 74.72 8.896 75.824 8.12 Q 76.695 7.508 78.092 7.379 A 8.553 8.553 0 0 1 78.88 7.344 Z M 91.008 7.344 L 91.008 6.912 A 7.897 7.897 0 0 0 90.992 6.388 Q 90.935 5.528 90.672 5.216 A 1.026 1.026 0 0 0 90.219 4.911 Q 89.951 4.816 89.584 4.816 Q 88.928 4.816 88.304 5.088 Q 87.68 5.36 87.184 5.856 Q 87.168 5.744 87.152 5.624 A 1.87 1.87 0 0 1 87.136 5.384 A 2.045 2.045 0 0 1 87.136 5.376 Q 87.136 4.629 87.718 4.208 A 1.737 1.737 0 0 1 87.752 4.184 Q 88.294 3.811 89.437 3.766 A 8.257 8.257 0 0 1 89.76 3.76 Q 90.682 3.76 91.302 4.1 A 2.145 2.145 0 0 1 91.648 4.336 A 1.883 1.883 0 0 1 92.325 5.662 A 2.65 2.65 0 0 1 92.336 5.904 Q 92.336 6.1 92.322 6.441 A 34.942 34.942 0 0 1 92.312 6.664 Q 92.295 7.01 92.283 7.285 A 277.052 277.052 0 0 0 92.272 7.52 L 92.224 10.112 Q 92.304 10.32 92.48 10.544 Q 92.656 10.768 92.864 10.928 Q 92.688 11.136 92.384 11.36 A 4.966 4.966 0 0 1 91.937 11.654 A 4.317 4.317 0 0 1 91.776 11.744 Q 91.552 11.6 91.368 11.408 Q 91.184 11.216 91.04 10.96 Q 90.763 11.224 90.312 11.422 A 4.076 4.076 0 0 1 90.112 11.504 Q 89.52 11.728 88.88 11.728 Q 87.984 11.728 87.416 11.224 A 1.618 1.618 0 0 1 86.85 10.047 A 2.012 2.012 0 0 1 86.848 9.952 Q 86.848 8.896 87.952 8.12 Q 88.823 7.508 90.22 7.379 A 8.553 8.553 0 0 1 91.008 7.344 Z M 70.672 7.12 L 70.72 4.992 L 69.84 4.992 L 69.84 4.464 L 71.568 2.752 L 72.096 2.688 L 72.032 4.128 L 74.144 4.128 L 74.032 4.992 L 71.984 4.992 L 71.952 7.008 A 30.177 30.177 0 0 0 71.936 7.852 A 27.305 27.305 0 0 0 71.936 7.968 L 71.936 8.88 Q 71.936 9.633 72.099 10.037 A 1.052 1.052 0 0 0 72.2 10.232 A 0.953 0.953 0 0 0 72.424 10.471 A 0.801 0.801 0 0 0 72.911 10.624 A 1.935 1.935 0 0 0 73.33 10.58 A 1.66 1.66 0 0 0 73.56 10.512 Q 73.856 10.4 74.096 10.208 L 74.256 10.272 Q 74.213 10.904 73.861 11.258 A 1.219 1.219 0 0 1 73.776 11.336 Q 73.344 11.696 72.528 11.696 A 2.726 2.726 0 0 1 71.979 11.644 Q 71.657 11.578 71.412 11.426 A 1.401 1.401 0 0 1 71.096 11.16 Q 70.628 10.629 70.624 9.493 A 5.573 5.573 0 0 1 70.624 9.472 Q 70.624 8.896 70.64 8.28 Q 70.656 7.664 70.672 7.12 Z M 82.8 7.12 L 82.848 4.992 L 81.968 4.992 L 81.968 4.464 L 83.696 2.752 L 84.224 2.688 L 84.16 4.128 L 86.272 4.128 L 86.16 4.992 L 84.112 4.992 L 84.08 7.008 A 30.177 30.177 0 0 0 84.064 7.852 A 27.305 27.305 0 0 0 84.064 7.968 L 84.064 8.88 Q 84.064 9.633 84.227 10.037 A 1.052 1.052 0 0 0 84.328 10.232 A 0.953 0.953 0 0 0 84.552 10.471 A 0.801 0.801 0 0 0 85.039 10.624 A 1.935 1.935 0 0 0 85.458 10.58 A 1.66 1.66 0 0 0 85.688 10.512 Q 85.984 10.4 86.224 10.208 L 86.384 10.272 Q 86.341 10.904 85.989 11.258 A 1.219 1.219 0 0 1 85.904 11.336 Q 85.472 11.696 84.656 11.696 A 2.726 2.726 0 0 1 84.107 11.644 Q 83.785 11.578 83.54 11.426 A 1.401 1.401 0 0 1 83.224 11.16 Q 82.756 10.629 82.752 9.493 A 5.573 5.573 0 0 1 82.752 9.472 Q 82.752 8.896 82.768 8.28 Q 82.784 7.664 82.8 7.12 Z M 14.544 10.336 L 14.544 8.096 Q 13.2 8.096 12.48 8.584 A 2.236 2.236 0 0 0 12.132 8.871 Q 11.76 9.252 11.76 9.712 A 1.168 1.168 0 0 0 11.809 10.058 A 0.926 0.926 0 0 0 12.08 10.48 A 1.029 1.029 0 0 0 12.458 10.691 Q 12.613 10.742 12.802 10.759 A 2.264 2.264 0 0 0 13.008 10.768 Q 13.376 10.768 13.808 10.64 A 4.196 4.196 0 0 0 14.161 10.519 Q 14.333 10.451 14.478 10.373 A 2.428 2.428 0 0 0 14.544 10.336 Z M 46.544 10.336 L 46.544 8.096 Q 45.2 8.096 44.48 8.584 A 2.236 2.236 0 0 0 44.132 8.871 Q 43.76 9.252 43.76 9.712 A 1.168 1.168 0 0 0 43.809 10.058 A 0.926 0.926 0 0 0 44.08 10.48 A 1.029 1.029 0 0 0 44.458 10.691 Q 44.613 10.742 44.802 10.759 A 2.264 2.264 0 0 0 45.008 10.768 Q 45.376 10.768 45.808 10.64 A 4.196 4.196 0 0 0 46.161 10.519 Q 46.333 10.451 46.478 10.373 A 2.428 2.428 0 0 0 46.544 10.336 Z M 66.752 10.336 L 66.752 8.096 Q 65.408 8.096 64.688 8.584 A 2.236 2.236 0 0 0 64.34 8.871 Q 63.968 9.252 63.968 9.712 A 1.168 1.168 0 0 0 64.017 10.058 A 0.926 0.926 0 0 0 64.288 10.48 A 1.029 1.029 0 0 0 64.666 10.691 Q 64.821 10.742 65.01 10.759 A 2.264 2.264 0 0 0 65.216 10.768 Q 65.584 10.768 66.016 10.64 A 4.196 4.196 0 0 0 66.369 10.519 Q 66.541 10.451 66.686 10.373 A 2.428 2.428 0 0 0 66.752 10.336 Z M 78.88 10.336 L 78.88 8.096 Q 77.536 8.096 76.816 8.584 A 2.236 2.236 0 0 0 76.468 8.871 Q 76.096 9.252 76.096 9.712 A 1.168 1.168 0 0 0 76.145 10.058 A 0.926 0.926 0 0 0 76.416 10.48 A 1.029 1.029 0 0 0 76.794 10.691 Q 76.949 10.742 77.138 10.759 A 2.264 2.264 0 0 0 77.344 10.768 Q 77.712 10.768 78.144 10.64 A 4.196 4.196 0 0 0 78.497 10.519 Q 78.669 10.451 78.814 10.373 A 2.428 2.428 0 0 0 78.88 10.336 Z M 91.008 10.336 L 91.008 8.096 Q 89.664 8.096 88.944 8.584 A 2.236 2.236 0 0 0 88.596 8.871 Q 88.224 9.252 88.224 9.712 A 1.168 1.168 0 0 0 88.273 10.058 A 0.926 0.926 0 0 0 88.544 10.48 A 1.029 1.029 0 0 0 88.922 10.691 Q 89.077 10.742 89.266 10.759 A 2.264 2.264 0 0 0 89.472 10.768 Q 89.84 10.768 90.272 10.64 A 4.196 4.196 0 0 0 90.625 10.519 Q 90.797 10.451 90.942 10.373 A 2.428 2.428 0 0 0 91.008 10.336 Z" vector-effect="non-scaling-stroke"/>
	</g> -->
    <!-- <g>
        <path d="M61.88,64.46c0.6-0.17,0.9-0.48,0.9-1.18v-7.61l-0.98-0.31v-0.34c0.98-0.17,1.86-0.23,3.09-0.23    c2.34,0,3.46,0.91,3.46,2.62c0,1.53-0.85,2.54-2.23,2.96l2.19,2.93c0.37,0.5,0.88,0.87,1.44,1.05v0.29    c-0.29,0.2-0.68,0.34-1.18,0.34c-0.67,0-1.1-0.26-1.66-1.1l-2.05-3.1h-0.73v3.27l0.98,0.25v0.34c-0.51,0.16-1.08,0.26-1.77,0.26    c-0.54,0-1.01-0.05-1.46-0.16V64.46z M64.73,60.05c1.21,0,2.2-0.79,2.2-2.4c0-1.27-0.81-2-2.14-2c-0.2,0-0.47,0.03-0.67,0.06v4.34    H64.73z"/>
		<path d="M70.45,64.5c0.42-0.15,0.82-0.46,0.82-0.84v-5.24L70.28,58v-0.33c0.7-0.2,1.41-0.29,1.84-0.29h0.5l-0.08,0.84v5.89    l0.87,0.23v0.29c-0.53,0.19-1.01,0.26-1.8,0.26c-0.36,0-0.81-0.03-1.16-0.14V64.5z M71.1,55.07c0-0.48,0.34-0.91,0.88-0.91    c0.43,0,0.81,0.33,0.81,0.84c0,0.54-0.37,0.96-0.87,0.96C71.46,55.95,71.1,55.58,71.1,55.07z"/>
		<path d="M75.52,58.42L74.52,58v-0.33c0.71-0.2,1.41-0.29,1.86-0.29h0.5l-0.09,0.87v6.96c0,2.54-0.76,3.33-1.75,3.33    c-0.34,0-0.68-0.12-0.87-0.37v-0.25c0.68,0,1.35-0.78,1.35-2.36V58.42z M75.34,55.07c0-0.48,0.34-0.91,0.88-0.91    c0.43,0,0.81,0.33,0.81,0.84c0,0.54-0.37,0.96-0.87,0.96C75.7,55.95,75.34,55.58,75.34,55.07z"/>
		<path d="M78.83,64.5c0.42-0.15,0.84-0.46,0.84-0.84v-8.99l-1.02-0.42v-0.34c0.71-0.2,1.43-0.28,1.86-0.28h0.53l-0.09,0.87v6.2    l0.85-0.74c0.84-0.71,1.6-1.78,1.6-2.48c0.28-0.09,0.51-0.12,0.82-0.12c0.23,0,0.42,0.05,0.62,0.14c-0.03,0.67-0.7,1.72-2.11,2.73    l-0.54,0.39l2.39,2.9c0.43,0.53,0.82,0.74,1.15,0.74v0.33c-0.34,0.23-0.7,0.33-1.15,0.33c-0.43,0-0.81-0.19-1.1-0.59l-2.53-3.33    v3.13l0.81,0.25v0.29c-0.57,0.19-1.02,0.25-1.75,0.25c-0.36,0-0.81-0.03-1.16-0.14V64.5z"/>
		<path d="M86.15,63.08c0.7,0.65,1.36,0.98,2.19,0.98c0.87,0,1.32-0.42,1.32-0.96c0-0.54-0.31-0.88-1.33-1.32l-0.77-0.33    c-0.9-0.39-1.4-1.04-1.4-1.92c0-1.22,1.08-2.28,2.7-2.28c1.24,0,1.74,0.37,1.74,0.96c0,0.23-0.03,0.43-0.08,0.65    c-0.5-0.34-1.18-0.59-1.77-0.59c-0.99,0-1.46,0.43-1.46,0.96c0,0.56,0.28,0.87,1.21,1.22l0.84,0.33c1.12,0.43,1.54,1.01,1.54,1.92    c0,1.19-1.15,2.28-2.88,2.28c-1.36,0-1.97-0.43-1.97-1.27C86.01,63.5,86.06,63.25,86.15,63.08z"/>
		<path d="M95.6,57.26c1.91,0,3.38,1.43,3.38,3.58c0,2.56-1.78,4.17-3.63,4.17c-1.88,0-3.4-1.32-3.4-3.58    C91.96,58.88,93.7,57.26,95.6,57.26z M95.45,64.11c1.04,0,2.12-1.01,2.12-3.13c0-1.81-0.98-2.82-2.08-2.82    c-1.07,0-2.12,1.07-2.12,3.12C93.37,63.15,94.35,64.11,95.45,64.11z"/>
		<path d="M100.02,58.2l-0.64-0.45v-0.37h2.96v0.37l-0.88,0.37l1.67,4.91h0.02l1.72-4.87l-0.88-0.42v-0.37h2.39v0.37l-0.43,0.36    l-2.76,6.84l-0.53,0.03L100.02,58.2z"/>
		<path d="M110.03,57.27c1.67,0,2.68,1.12,2.68,2.9c0,0.29,0,0.6-0.02,0.99h-4.57c0,1.74,1.01,2.74,2.29,2.74    c0.76,0,1.6-0.26,2.19-0.67c0.03,0.08,0.06,0.25,0.06,0.4c0,0.7-1.02,1.35-2.67,1.35c-1.77,0-3.21-1.38-3.21-3.55    C106.79,58.74,108.42,57.27,110.03,57.27z M111.48,60.36c0-1.52-0.65-2.25-1.57-2.25c-0.85,0-1.75,1.02-1.75,2.25H111.48z"/>
		<path d="M114.05,64.5c0.4-0.15,0.82-0.46,0.82-0.84v-5.24L113.86,58v-0.34c0.71-0.2,1.41-0.28,1.86-0.28h0.37v1.08h0.01l0.43-0.48    c0.42-0.45,0.84-0.68,1.36-0.68c0.54,0,0.81,0.23,0.81,0.67c0,0.29-0.09,0.64-0.25,0.93c-0.29-0.23-0.64-0.36-0.96-0.36    c-0.48,0-0.93,0.22-1.36,0.64v4.93l1.07,0.23v0.29c-0.53,0.19-1.04,0.26-1.92,0.26c-0.45,0-0.88-0.03-1.24-0.14V64.5z"/>
		<path d="M119.35,64.5c0.42-0.15,0.82-0.46,0.82-0.84v-8.99l-1.01-0.42v-0.34c0.7-0.2,1.33-0.28,1.86-0.28h0.5l-0.08,0.87v3.71    c0.56-0.54,1.27-0.85,2.25-0.85c1.32,0,2.17,0.82,2.17,2.42v4.34l0.81,0.23v0.29c-0.43,0.17-0.98,0.26-1.64,0.26    c-0.31,0-0.7-0.03-0.99-0.14V64.5c0.37-0.17,0.56-0.46,0.56-1.02v-2.96c0-1.52-0.62-2.09-1.58-2.09c-0.61,0-1.21,0.22-1.57,0.48    v5.21l0.87,0.23v0.29c-0.53,0.19-1.01,0.26-1.8,0.26c-0.36,0-0.81-0.03-1.16-0.14V64.5z"/>
		<path d="M131.07,57.27c1.67,0,2.68,1.12,2.68,2.9c0,0.29,0,0.6-0.02,0.99h-4.57c0,1.74,1.01,2.74,2.29,2.74    c0.76,0,1.6-0.26,2.19-0.67c0.03,0.08,0.06,0.25,0.06,0.4c0,0.7-1.02,1.35-2.67,1.35c-1.77,0-3.21-1.38-3.21-3.55    C127.83,58.74,129.46,57.27,131.07,57.27z M132.51,60.36c0-1.52-0.65-2.25-1.57-2.25c-0.85,0-1.75,1.02-1.75,2.25H132.51z"/>
		<path d="M135.08,64.5c0.42-0.15,0.82-0.46,0.82-0.84v-5.24L134.91,58v-0.33c0.7-0.2,1.41-0.29,1.85-0.29h0.5l-0.08,0.84v5.89    l0.87,0.23v0.29c-0.53,0.19-1.01,0.26-1.8,0.26c-0.36,0-0.81-0.03-1.16-0.14V64.5z M135.73,55.07c0-0.48,0.34-0.91,0.88-0.91    c0.43,0,0.81,0.33,0.81,0.84c0,0.54-0.37,0.96-0.87,0.96C136.09,55.95,135.73,55.58,135.73,55.07z"/>
		<path d="M142.96,57.29c0.37,0,0.82,0.05,1.07,0.11v-2.73l-1.05-0.42v-0.34c0.71-0.2,1.47-0.28,1.92-0.28h0.5l-0.09,0.87v8.88    c0.11,0.31,0.29,0.64,0.59,0.9c-0.31,0.28-0.65,0.5-1.08,0.73c-0.31-0.25-0.59-0.6-0.74-0.93c-0.5,0.51-1.35,0.88-1.98,0.88    c-1.57,0-2.82-1.3-2.82-3.36C139.25,58.81,140.94,57.29,142.96,57.29z M144.04,63.46v-5.13c-0.26-0.09-0.71-0.17-1.13-0.17    c-1.32,0-2.31,1.04-2.31,3.19c0,1.69,0.88,2.6,1.86,2.6C143.05,63.95,143.68,63.75,144.04,63.46z"/>
    </g> -->
</g>
</svg>